<svg width="19" height="19" viewBox="0 0 19 19" fill="none" xmlns="http://www.w3.org/2000/svg">
<g filter="url(#filter1_dd_0_1)">
<path d="M-25.0283 -3.70621C-25.0283 -10.3336 -19.6557 -15.7062 -13.0283 -15.7062H128.972C135.599 -15.7062 140.972 -10.3336 140.972 -3.70621V22.2938C140.972 28.9212 135.599 34.2938 128.972 34.2938H-13.0283C-19.6557 34.2938 -25.0283 28.9212 -25.0283 22.2938V-3.70621Z" fill="white" fill-opacity="0.2"/>
<path d="M-5.02829 9.29379C-5.02829 1.00952 1.68744 -5.70621 9.97171 -5.70621C18.256 -5.70621 24.9717 1.00952 24.9717 9.29379C24.9717 17.5781 18.256 24.2938 9.97171 24.2938C1.68744 24.2938 -5.02829 17.5781 -5.02829 9.29379Z" fill="white" fill-opacity="0.2"/>
<g clip-path="url(#clip0_0_1)">
<path d="M9.97171 5.54379V16.0438" stroke="white" stroke-width="2" stroke-linecap="round" stroke-linejoin="round"/>
<path d="M3.22171 13.7938C3.0228 13.7938 2.83203 13.7148 2.69138 13.5741C2.55073 13.4335 2.47171 13.2427 2.47171 13.0438V3.29379C2.47171 3.09488 2.55073 2.90411 2.69138 2.76346C2.83203 2.62281 3.0228 2.54379 3.22171 2.54379H6.97171C7.76736 2.54379 8.53042 2.85986 9.09303 3.42247C9.65564 3.98508 9.97171 4.74814 9.97171 5.54379C9.97171 4.74814 10.2878 3.98508 10.8504 3.42247C11.413 2.85986 12.1761 2.54379 12.9717 2.54379H16.7217C16.9206 2.54379 17.1114 2.62281 17.252 2.76346C17.3927 2.90411 17.4717 3.09488 17.4717 3.29379V13.0438C17.4717 13.2427 17.3927 13.4335 17.252 13.5741C17.1114 13.7148 16.9206 13.7938 16.7217 13.7938H12.2217C11.625 13.7938 11.0527 14.0308 10.6307 14.4528C10.2088 14.8748 9.97171 15.4471 9.97171 16.0438C9.97171 15.4471 9.73466 14.8748 9.3127 14.4528C8.89074 14.0308 8.31845 13.7938 7.72171 13.7938H3.22171Z" stroke="white" stroke-width="2" stroke-linecap="round" stroke-linejoin="round"/>
</g>
</g>
<defs>
<filter id="filter1_dd_0_1" x="-37.0283" y="-17.7062" width="190" height="74" filterUnits="userSpaceOnUse" color-interpolation-filters="sRGB">
<feFlood flood-opacity="0" result="BackgroundImageFix"/>
<feColorMatrix in="SourceAlpha" type="matrix" values="0 0 0 0 0 0 0 0 0 0 0 0 0 0 0 0 0 0 127 0" result="hardAlpha"/>
<feMorphology radius="3" operator="erode" in="SourceAlpha" result="effect1_dropShadow_0_1"/>
<feOffset dy="10"/>
<feGaussianBlur stdDeviation="7.5"/>
<feColorMatrix type="matrix" values="0 0 0 0 0 0 0 0 0 0 0 0 0 0 0 0 0 0 0.1 0"/>
<feBlend mode="normal" in2="BackgroundImageFix" result="effect1_dropShadow_0_1"/>
<feColorMatrix in="SourceAlpha" type="matrix" values="0 0 0 0 0 0 0 0 0 0 0 0 0 0 0 0 0 0 127 0" result="hardAlpha"/>
<feMorphology radius="4" operator="erode" in="SourceAlpha" result="effect2_dropShadow_0_1"/>
<feOffset dy="4"/>
<feGaussianBlur stdDeviation="3"/>
<feColorMatrix type="matrix" values="0 0 0 0 0 0 0 0 0 0 0 0 0 0 0 0 0 0 0.1 0"/>
<feBlend mode="normal" in2="effect1_dropShadow_0_1" result="effect2_dropShadow_0_1"/>
<feBlend mode="normal" in="SourceGraphic" in2="effect2_dropShadow_0_1" result="shape"/>
</filter>
<clipPath id="clip0_0_1">
<rect width="18" height="18" fill="white" transform="translate(0.97171 0.293793)"/>
</clipPath>
</defs>
</svg>