<svg width="25" height="25" viewBox="0 0 25 25" fill="none" xmlns="http://www.w3.org/2000/svg">
<g filter="url(#filter1_dd_0_1)">
<path d="M-7.02829 4.29379C-7.02829 -2.33362 -1.65571 -7.70621 4.97171 -7.70621H20.9717C27.5991 -7.70621 32.9717 -2.33362 32.9717 4.29379V20.2938C32.9717 26.9212 27.5991 32.2938 20.9717 32.2938H4.97171C-1.65571 32.2938 -7.02829 26.9212 -7.02829 20.2938V4.29379Z" fill="white" fill-opacity="0.2"/>
<path d="M11.9717 6.29379C13.0763 6.29379 13.9717 5.39836 13.9717 4.29379C13.9717 3.18922 13.0763 2.29379 11.9717 2.29379C10.8671 2.29379 9.97171 3.18922 9.97171 4.29379C9.97171 5.39836 10.8671 6.29379 11.9717 6.29379Z" stroke="white" stroke-width="2" stroke-linecap="round" stroke-linejoin="round"/>
<path d="M18.9717 10.2938C20.0763 10.2938 20.9717 9.39836 20.9717 8.29379C20.9717 7.18922 20.0763 6.29379 18.9717 6.29379C17.8671 6.29379 16.9717 7.18922 16.9717 8.29379C16.9717 9.39836 17.8671 10.2938 18.9717 10.2938Z" stroke="white" stroke-width="2" stroke-linecap="round" stroke-linejoin="round"/>
<path d="M20.9717 18.2938C22.0763 18.2938 22.9717 17.3984 22.9717 16.2938C22.9717 15.1892 22.0763 14.2938 20.9717 14.2938C19.8671 14.2938 18.9717 15.1892 18.9717 16.2938C18.9717 17.3984 19.8671 18.2938 20.9717 18.2938Z" stroke="white" stroke-width="2" stroke-linecap="round" stroke-linejoin="round"/>
<path d="M9.9717 10.2938C10.6283 10.2938 11.2785 10.4231 11.8851 10.6744C12.4917 10.9257 13.0429 11.294 13.5072 11.7583C13.9715 12.2226 14.3398 12.7737 14.5911 13.3804C14.8424 13.987 14.9717 14.6372 14.9717 15.2938V18.7938C14.9714 19.6303 14.6716 20.439 14.1265 21.0734C13.5814 21.7079 12.8272 22.1262 12.0003 22.2525C11.1734 22.3788 10.3287 22.2049 9.619 21.7621C8.90934 21.3193 8.38172 20.637 8.1317 19.8388C7.70504 18.4621 6.80504 17.5605 5.4317 17.1338C4.63389 16.8839 3.95187 16.3567 3.50906 15.6476C3.06626 14.9384 2.89192 14.0942 3.01759 13.2677C3.14326 12.4411 3.56064 11.6869 4.19421 11.1414C4.82778 10.5959 5.63567 10.2953 6.4717 10.2938H9.9717Z" stroke="white" stroke-width="2" stroke-linecap="round" stroke-linejoin="round"/>
</g>
<defs>
<filter id="filter1_dd_0_1" x="-19.0283" y="-9.70621" width="64" height="64" filterUnits="userSpaceOnUse" color-interpolation-filters="sRGB">
<feFlood flood-opacity="0" result="BackgroundImageFix"/>
<feColorMatrix in="SourceAlpha" type="matrix" values="0 0 0 0 0 0 0 0 0 0 0 0 0 0 0 0 0 0 127 0" result="hardAlpha"/>
<feMorphology radius="3" operator="erode" in="SourceAlpha" result="effect1_dropShadow_0_1"/>
<feOffset dy="10"/>
<feGaussianBlur stdDeviation="7.5"/>
<feColorMatrix type="matrix" values="0 0 0 0 0 0 0 0 0 0 0 0 0 0 0 0 0 0 0.1 0"/>
<feBlend mode="normal" in2="BackgroundImageFix" result="effect1_dropShadow_0_1"/>
<feColorMatrix in="SourceAlpha" type="matrix" values="0 0 0 0 0 0 0 0 0 0 0 0 0 0 0 0 0 0 127 0" result="hardAlpha"/>
<feMorphology radius="4" operator="erode" in="SourceAlpha" result="effect2_dropShadow_0_1"/>
<feOffset dy="4"/>
<feGaussianBlur stdDeviation="3"/>
<feColorMatrix type="matrix" values="0 0 0 0 0 0 0 0 0 0 0 0 0 0 0 0 0 0 0.1 0"/>
<feBlend mode="normal" in2="effect1_dropShadow_0_1" result="effect2_dropShadow_0_1"/>
<feBlend mode="normal" in="SourceGraphic" in2="effect2_dropShadow_0_1" result="shape"/>
</filter>
</defs>
</svg>